<svg width="80" height="80" viewBox="0 0 80 80" fill="none" xmlns="http://www.w3.org/2000/svg">
<g clip-path="url(#clip0_131_44)">
<path d="M30.7604 15.4339C11.0092 43.9 9.83345 64.9547 11.4107 68.9113C22.1143 70.9007 46.7598 45.5675 54.7738 33.237L30.7604 15.4339Z" fill="#F94646" stroke="#F94646" stroke-width="2.11225"/>
<path d="M27.6103 24.2466C26.2487 20.7596 27.3256 16.4171 32.9836 12.4359C34.9952 12.509 39.6907 13.4285 43.5477 16.4388C43.179 14.6546 42.7971 10.6066 44.2195 8.68807C45.9037 8.69791 49.7086 9.04129 51.4551 10.3361C53.6381 11.9545 49.046 13.5855 46.8971 18.7655C51.707 21.8436 58.1478 26.4053 57.2389 27.6312C56.1754 32.1076 52.4805 39.6101 50.5 40C50.5 40 46.0029 31.3792 44.9113 30.5699C44.7311 30.4363 44.5828 30.3184 44.4618 30.2152C44.4226 30.5916 43.9807 31.0915 42.4864 31.5593L35.2114 34.5275C32.7864 35.5169 34.8458 25.8946 43.2517 19.1194C45.6293 17.2031 31.9763 27.4835 27.6103 24.2466Z" fill="#BADA86"/>
<path d="M43.5477 16.4388C39.6907 13.4285 34.9952 12.509 32.9836 12.4359C27.3256 16.4171 26.2487 20.7596 27.6103 24.2466C31.9763 27.4835 45.6293 17.2031 43.2517 19.1194C34.8458 25.8946 32.7864 35.5169 35.2114 34.5275C35.8249 34.2771 40.0614 32.5487 42.4864 31.5593C46.8918 30.1801 42.15 28.5227 44.9113 30.5699C46.0029 31.3792 50.5 40 50.5 40C52.4805 39.6101 56.1754 32.1076 57.2389 27.6312C58.1478 26.4053 51.707 21.8436 46.8971 18.7655M43.5477 16.4388C43.9015 16.7149 44.2482 17.0086 44.5852 17.3209C45.2752 17.7408 46.0616 18.2307 46.8971 18.7655M43.5477 16.4388C43.179 14.6546 42.7971 10.6066 44.2195 8.68807C45.9037 8.69791 49.7086 9.04129 51.4551 10.3361C53.6381 11.9545 49.046 13.5855 46.8971 18.7655" stroke="#BADA86" stroke-width="2.11225"/>
<path d="M64.5704 67.8092C51.1725 72.6804 42.2147 69.9117 40.6588 68.5386C40.5786 63.1473 53.0027 55.4598 58.7678 53.6067L64.5704 67.8092Z" fill="#FFC876" stroke="#FFC876" stroke-width="2.11225"/>
<path d="M60.6325 67.9114C62.0058 69.1081 63.9124 69.2833 65.9914 67.2286C66.1031 66.2629 66.0482 63.8905 65.0527 61.5855C65.7786 62.0422 67.4577 62.8629 68.3672 62.4913C68.4824 61.6909 68.6072 59.8319 68.1852 58.799C67.6577 57.5079 66.6449 59.4283 64.3093 59.6292C63.3527 56.8615 61.8863 53.0859 61.3051 53.3233C59.343 53.1205 55.9258 54.7678 55.6211 55.6456C55.6211 55.6456 58.9293 58.0606 59.193 58.7062C59.2366 58.8128 59.2758 58.9018 59.3107 58.9754C59.1493 58.9346 58.9073 59.0652 58.6042 59.7001L56.8377 62.6818C56.2488 63.6757 60.4505 64.2191 63.9018 61.3024C64.878 60.4774 59.5775 65.3291 60.6325 67.9114Z" fill="#6AAA54"/>
<path d="M65.0527 61.5855C66.0482 63.8905 66.1031 66.2629 65.9914 67.2286C63.9124 69.2833 62.0058 69.1081 60.6325 67.9114C59.5775 65.3291 64.878 60.4774 63.9018 61.3024C60.4505 64.2191 56.2488 63.6757 56.8377 62.6818C56.9867 62.4304 58.0154 60.694 58.6042 59.7001C59.4977 57.8284 59.8603 60.3394 59.193 58.7062C58.9293 58.0606 55.6211 55.6456 55.6211 55.6456C55.9258 54.7678 59.343 53.1205 61.3051 53.3233C61.8863 53.0859 63.3527 56.8615 64.3093 59.6292M65.0527 61.5855C64.9614 61.3741 64.8621 61.1632 64.7544 60.954C64.6263 60.5604 64.4755 60.11 64.3093 59.6292M65.0527 61.5855C65.7786 62.0422 67.4577 62.8629 68.3672 62.4913C68.4824 61.6909 68.6072 59.8319 68.1852 58.799C67.6577 57.5079 66.6449 59.4283 64.3093 59.6292" stroke="#6AAA54" stroke-width="2.11225"/>
</g>
<defs>
<clipPath id="clip0_131_44">
<rect width="80" height="80" fill="white"/>
</clipPath>
</defs>
</svg>
